REM MD5 6d10558e5a473466ac534b9e5999bd87
FILE "Euro Demo 09-98 (Germany).bin" BINARY
  TRACK 01 MODE2/2352
    INDEX 01 00:00:00
  TRACK 02 AUDIO
    INDEX 00 35:29:06
    INDEX 01 35:31:06
  TRACK 03 AUDIO
    INDEX 00 37:26:72
    INDEX 01 37:28:72
  TRACK 04 AUDIO
    INDEX 00 39:15:56
    INDEX 01 39:17:56
  TRACK 05 AUDIO
    INDEX 00 42:44:39
    INDEX 01 42:46:39
REM LEADOUT 45:47:70
